<svg xmlns="http://www.w3.org/2000/svg" viewBox="0 0 133.24 133.24"><defs><style>.cls-1{fill:#6cbb9e;}.cls-1,.cls-2,.cls-3,.cls-4{stroke:#fff;stroke-miterlimit:10;stroke-width:3px;}.cls-2{fill:#1da68c;}.cls-3{fill:#3db5cc;}.cls-4{fill:#841d1f;}.cls-5{fill:#fff;}</style></defs><g id="Layer_2" data-name="Layer 2"><g id="Layer_1-2" data-name="Layer 1"><rect class="cls-1" x="30.62" y="3.62" width="99" height="99"/><rect class="cls-1" x="3.62" y="30.62" width="99" height="99"/><polygon class="cls-2" points="129.62 3.62 102.62 30.62 30.62 30.62 30.62 3.62 129.62 3.62"/><polygon class="cls-2" points="102.62 102.62 102.62 129.62 3.62 129.62 30.62 102.62 102.62 102.62"/><polygon class="cls-3" points="129.62 102.62 102.62 129.62 102.62 102.62 129.62 102.62"/><polygon class="cls-3" points="30.62 3.62 30.62 30.62 3.62 30.62 30.62 3.62"/><rect class="cls-4" x="30.62" y="30.62" width="72" height="72"/><path class="cls-5" d="M75,70.41H66.71V65.12H82v8.55c0,8.17-5.88,13.58-14.59,13.58-9.88,0-15.62-6.34-15.62-17.29V62.07c0-11,5.74-17.29,15.62-17.29,8.82,0,14.37,5.32,14.57,14H75C74.8,54.06,71.68,51,67.22,51c-5.63,0-8.55,3.79-8.55,11.12V70c0,7.33,2.94,11.12,8.63,11.12,4.78,0,7.72-2.89,7.72-7.67Z"/></g></g></svg>